<?xml version="1.0" encoding="UTF-8" standalone="no"?>
<svg width="1293px" height="1008px" viewBox="0 0 1293 1008" version="1.1" xmlns="http://www.w3.org/2000/svg" xmlns:xlink="http://www.w3.org/1999/xlink" xmlns:sketch="http://www.bohemiancoding.com/sketch/ns">
    <!-- Generator: sketchtool 3.5.1 (25234) - http://www.bohemiancoding.com/sketch -->
    <title>logo</title>
    <desc>Created with sketchtool.</desc>
    <defs></defs>
    <g id="intermediate" stroke="none" stroke-width="1" fill="none" fill-rule="evenodd" sketch:type="MSPage">
        <g id="logo-sprite" sketch:type="MSArtboardGroup">
            <g id="logo" sketch:type="MSLayerGroup" transform="translate(16.000000, 16.000000)">
                <g id="type" transform="translate(525.000000, 95.000000)" fill="#45A3E6" sketch:type="MSShapeGroup">
                    <path d="M173.241106,192.4 C173.794788,192.4 174.243636,191.946411 174.243636,191.409383 L174.243636,95.5 C174.243636,81.2199286 169.937013,70.0000408 161.323636,61.84 C152.71026,53.906627 141.37704,49.94 127.323636,49.94 C108.963545,49.94 95.7036772,57.306593 87.5436364,72.04 C78.93026,57.306593 65.5570604,49.94 47.4236364,49.94 C32.2368938,49.94 21.2436704,55.2666134 14.4436364,65.92 L14.4436364,52.9825304 C14.4436364,52.4288482 13.995616,51.98 13.4411059,51.98 L1.50616679,51.98 C0.952484522,51.98 0.503636364,52.434137 0.503636364,52.970865 L0.503636364,191.409135 C0.503636364,191.956375 0.95165677,192.4 1.50616679,192.4 L13.4411059,192.4 C13.9947882,192.4 14.4436364,191.946411 14.4436364,191.409383 L14.4436364,95.5 C14.4436364,85.7532846 17.616938,78.046695 23.9636364,72.38 C30.3103348,66.4866372 38.1302566,63.54 47.4236364,63.54 C56.4903484,63.54 64.3102702,66.5999694 70.8836364,72.72 C77.2303348,78.386695 80.4036364,85.9799524 80.4036364,95.5 L80.4036364,191.409383 C80.4036364,191.956486 80.8516568,192.4 81.4061668,192.4 L93.3411059,192.4 C93.8947882,192.4 94.3436364,191.946411 94.3436364,191.409383 L94.3436364,95.5 C94.3436364,74.1932268 105.33686,63.54 127.323636,63.54 C137.977023,63.54 146.136941,66.7133016 151.803636,73.06 C157.470331,79.4066984 160.303636,86.8866236 160.303636,95.5 L160.303636,191.409383 C160.303636,191.956486 160.751657,192.4 161.306167,192.4 L173.241106,192.4 Z" id="Path" stroke="#45A3E6" stroke-width="5"></path>
                    <path d="M290.783636,123.72 C288.290291,121.906658 284.550328,119.810012 279.563636,117.43 C274.576945,115.049988 268.230342,112.500014 260.523636,109.78 C251.683592,106.833319 245.223657,103.773349 241.143636,100.6 C236.156945,96.5199796 233.663636,91.3066984 233.663636,84.96 C233.663636,70.6799286 241.823555,63.54 258.143636,63.54 C268.521814,63.54 277.997654,66.2599997 284.873425,72.5110974 C285.907138,73.3387982 286.998531,74.4086708 286.998531,74.4086708 C287.398996,74.7904814 288.063009,74.8058774 288.473667,74.4499737 L296.418591,67.5643724 C297.249805,66.8439874 297.248006,65.6682817 296.420371,64.945769 C296.420371,64.945769 295.320998,63.9761582 294.786717,63.5400004 C283.701428,54.4905779 273.064566,49.94 258.143636,49.94 C246.810246,49.94 237.630338,53.4532982 230.603636,60.48 C223.350267,67.280034 219.723636,75.4399524 219.723636,84.96 C219.723636,96.0667222 223.350267,104.566637 230.603636,110.46 C235.590328,114.54002 243.750246,118.61998 255.083636,122.7 C261.203667,124.966678 266.360282,126.949992 270.553636,128.65 C274.746991,130.350009 277.976958,131.879993 280.243636,133.24 C287.723674,139.133363 291.463636,146.046627 291.463636,153.98 C291.463636,172.113424 280.81041,181.18 259.503636,181.18 C249.756921,181.18 242.050331,179.026688 236.383636,174.72 C231.989492,171.607481 228.113005,167.459792 224.754103,162.276845 C223.954625,161.043214 222.944773,159.268487 222.944773,159.268487 C222.668003,158.788835 222.06118,158.629474 221.587818,158.913491 L212.26129,164.509408 C211.312656,165.078588 210.99237,166.320788 211.545686,167.273375 C211.545686,167.273375 212.036376,168.155842 212.819881,169.396451 C223.65039,186.545564 239.21151,195.12 259.503636,195.12 C272.197033,195.12 283.076924,191.266705 292.143636,183.56 C300.983681,176.079963 305.403636,166.220061 305.403636,153.98 C305.403636,141.286603 300.530352,131.200037 290.783636,123.72 Z" id="Path" stroke="#45A3E6" stroke-width="5"></path>
                    <path d="M478.583636,53.9747132 C478.583636,52.8730635 477.690421,51.98 476.586374,51.98 L466.640898,51.98 C465.537841,51.98 464.643636,52.8802887 464.643636,53.9833011 L464.643636,76.46 C449.683562,58.7799116 430.983749,49.94 408.543636,49.94 C388.143534,49.94 370.91704,56.9665964 356.863636,71.02 C343.036901,84.8467358 336.123636,101.959898 336.123636,122.36 C336.123636,142.760102 343.150233,159.986596 357.203636,174.04 C371.030372,187.866736 388.143534,194.78 408.543636,194.78 C431.210416,194.78 449.910229,185.940088 464.643636,168.26 L464.643636,189 C464.643636,206.453421 459.770352,220.053285 450.023636,229.8 C440.503589,239.546715 427.017057,244.42 409.563636,244.42 C396.643572,244.42 385.537016,242.266688 376.243636,237.96 C365.624201,233.058722 358.776752,225.857605 355.701135,216.356469 C355.363062,215.312102 355.071352,214.110933 355.071352,214.110933 C354.934542,213.574701 354.375616,213.14 353.821106,213.14 L342.880898,213.14 C341.777841,213.14 341.112407,214.003635 341.39974,215.067869 C341.39974,215.067869 341.54467,215.665785 341.916631,216.888146 C350.329874,244.536181 372.878674,258.36 409.563636,258.36 C430.190406,258.36 446.85024,252.013397 459.543636,239.32 C472.237033,226.626603 478.583636,209.96677 478.583636,189.34 L478.583636,53.9747132 Z M467.363636,122.36 C467.363636,138.680082 461.583694,152.619942 450.023636,164.18 C438.690246,175.51339 424.863718,181.18 408.543636,181.18 C392.450223,181.18 378.623694,175.400058 367.063636,163.84 C355.503579,152.279942 349.723636,138.453414 349.723636,122.36 C349.723636,106.039918 355.503579,92.1000578 367.063636,80.54 C378.397026,69.20661 392.223555,63.54 408.543636,63.54 C424.63705,63.54 438.463579,69.3199422 450.023636,80.88 C461.583694,92.4400578 467.363636,106.266586 467.363636,122.36 Z" id="Path" stroke="#45A3E6" stroke-width="5"></path>
                    <circle id="Oval-10" cx="517.5" cy="121.5" r="12.5"></circle>
                    <circle id="Oval-10-Copy" cx="737.263636" cy="14.82" r="14"></circle>
                    <path d="M695.406374,192.4 C696.509432,192.4 697.403636,191.503306 697.403636,190.401511 L697.403636,53.9784887 C697.403636,52.8747539 696.510421,51.98 695.406374,51.98 L685.460898,51.98 C684.357841,51.98 683.463636,52.8802887 683.463636,53.9833011 L683.463636,76.46 C668.503562,58.7799116 649.803749,49.94 627.363636,49.94 C606.963534,49.94 589.73704,56.9665964 575.683636,71.02 C561.856901,84.8467358 554.943636,101.959898 554.943636,122.36 C554.943636,142.760102 561.970233,159.986596 576.023636,174.04 C589.850372,187.866736 606.963534,194.78 627.363636,194.78 C650.030416,194.78 668.730229,185.940088 683.463636,168.26 L683.463636,190.403985 C683.463636,191.506354 684.356852,192.4 685.460898,192.4 L695.406374,192.4 Z M686.183636,122.36 C686.183636,138.680082 680.403694,152.619942 668.843636,164.18 C657.510246,175.51339 643.683718,181.18 627.363636,181.18 C611.270223,181.18 597.443694,175.400058 585.883636,163.84 C574.323579,152.279942 568.543636,138.453414 568.543636,122.36 C568.543636,106.039918 574.323579,92.1000578 585.883636,80.54 C597.217026,69.20661 611.043555,63.54 627.363636,63.54 C643.45705,63.54 657.283579,69.3199422 668.843636,80.88 C680.403694,92.4400578 686.183636,106.266586 686.183636,122.36 Z" id="Path" stroke="#45A3E6" stroke-width="5"></path>
                    <path d="M742.206374,192.4 C743.309432,192.4 744.203636,191.503306 744.203636,190.401511 L744.203636,53.9784887 C744.203636,52.8747539 743.310421,51.98 742.206374,51.98 L732.260898,51.98 C731.157841,51.98 730.263636,52.8766945 730.263636,53.9784887 L730.263636,190.401511 C730.263636,191.505246 731.156852,192.4 732.260898,192.4 L742.206374,192.4 Z" id="Path" stroke="#45A3E6" stroke-width="5"></path>
                </g>
                <g id="icon" sketch:type="MSShapeGroup">
                    <path d="M111.349305,404.135802 C142.274144,421.357605 177.887684,431.166895 215.78986,431.166895 C334.543737,431.166895 430.830664,334.871646 430.830664,216 C430.830664,97.1283537 334.543737,0.833105312 215.78986,0.833105312 C97.0359833,0.833105312 0.749056242,97.1283537 0.749056242,216 C0.749056242,252.377394 9.76630253,286.640513 25.6851938,316.676656 C19.1981422,347.058238 26.2111113,314.213566 3.74905624,419.412781 C118.497618,403.190804 34.7460771,414.579464 111.349305,404.135802 Z" id="Shape" stroke="#45A3E6" stroke-width="30" transform="translate(215.789860, 216.000000) scale(-1, 1) translate(-215.789860, -216.000000) "></path>
                    <ellipse id="Oval-1" fill="#45A3E6" cx="216" cy="216" rx="30" ry="30"></ellipse>
                    <ellipse id="Oval-1-Copy" fill="#45A3E6" cx="324.936364" cy="216" rx="27" ry="27"></ellipse>
                    <ellipse id="Oval-1-Copy-2" fill="#45A3E6" cx="106.936364" cy="216" rx="27" ry="27"></ellipse>
                </g>
            </g>
            <g id="logo-no-text" sketch:type="MSLayerGroup" transform="translate(16.000000, 530.000000)">
                <g id="icon" sketch:type="MSShapeGroup">
                    <path d="M111.349305,404.135802 C142.274144,421.357605 177.887684,431.166895 215.78986,431.166895 C334.543737,431.166895 430.830664,334.871646 430.830664,216 C430.830664,97.1283537 334.543737,0.833105312 215.78986,0.833105312 C97.0359833,0.833105312 0.749056242,97.1283537 0.749056242,216 C0.749056242,252.377394 9.76630253,286.640513 25.6851938,316.676656 C19.1981422,347.058238 26.2111113,314.213566 3.74905624,419.412781 C118.497618,403.190804 34.7460771,414.579464 111.349305,404.135802 Z" id="Shape" stroke="#45A3E6" stroke-width="30" transform="translate(215.789860, 216.000000) scale(-1, 1) translate(-215.789860, -216.000000) "></path>
                    <ellipse id="Oval-1" fill="#45A3E6" cx="216" cy="216" rx="30" ry="30"></ellipse>
                    <ellipse id="Oval-1-Copy" fill="#45A3E6" cx="324.936364" cy="216" rx="27" ry="27"></ellipse>
                    <ellipse id="Oval-1-Copy-2" fill="#45A3E6" cx="106.936364" cy="216" rx="27" ry="27"></ellipse>
                </g>
            </g>
        </g>
    </g>
</svg>