<?xml version="1.0" standalone="no"?>
<!DOCTYPE svg PUBLIC "-//W3C//DTD SVG 20010904//EN"
 "http://www.w3.org/TR/2001/REC-SVG-20010904/DTD/svg10.dtd">
<svg version="1.0" xmlns="http://www.w3.org/2000/svg"
 width="462.000000pt" height="462.000000pt" viewBox="0 0 462.000000 462.000000"
 preserveAspectRatio="xMidYMid meet">
<metadata>
Created by potrace 1.11, written by Peter Selinger 2001-2013
</metadata>
<g transform="translate(0.000000,462.000000) scale(0.100000,-0.100000)"
fill="#000000" stroke="none">
<path d="M2129 4606 c-2 -2 -35 -7 -74 -10 -260 -25 -527 -102 -769 -223 -249
-123 -437 -259 -629 -455 -361 -369 -586 -842 -645 -1358 -14 -128 -5 -559 13
-590 2 -3 6 -27 9 -55 4 -27 16 -88 27 -134 160 -666 604 -1224 1216 -1530
171 -85 300 -132 507 -182 87 -21 103 -24 256 -44 104 -13 460 -13 545 0 110
17 257 47 320 65 39 11 77 22 85 24 44 11 226 83 301 120 l85 41 115 -17 c63
-9 137 -19 164 -22 28 -3 61 -8 75 -10 14 -3 41 -7 60 -10 19 -3 85 -12 145
-21 61 -9 125 -18 143 -21 17 -2 48 -6 67 -9 19 -3 52 -7 73 -10 20 -3 66 -10
102 -15 36 -5 83 -12 105 -15 22 -3 51 -7 65 -10 14 -2 46 -7 73 -10 55 -6 55
-5 33 84 -8 31 -17 74 -21 96 -3 22 -10 56 -15 75 -10 37 -55 244 -64 295 -3
17 -8 39 -10 50 -2 11 -32 146 -65 299 l-60 279 19 37 c30 59 95 227 123 320
94 305 122 639 81 965 -69 560 -360 1092 -799 1462 -292 247 -710 448 -1035
499 -19 3 -42 7 -50 9 -16 5 -68 12 -175 24 -70 8 -389 13 -396 7z m406 -309
c11 -2 43 -8 70 -11 28 -4 61 -9 75 -11 14 -3 34 -7 45 -9 77 -15 254 -71 350
-111 110 -47 360 -186 385 -215 3 -3 21 -17 40 -30 65 -46 166 -135 238 -209
596 -620 734 -1546 342 -2306 l-36 -71 53 -244 c52 -243 59 -272 68 -320 3
-14 7 -34 9 -45 8 -35 47 -219 52 -242 4 -20 2 -21 -28 -13 -18 5 -60 11 -93
15 -33 3 -69 8 -80 10 -11 3 -38 7 -60 10 -22 3 -53 7 -70 10 -47 7 -107 16
-140 20 -16 3 -46 7 -65 10 -51 8 -100 14 -145 20 -21 2 -75 10 -120 16 -112
16 -111 16 -203 -35 -46 -24 -104 -53 -130 -62 -26 -10 -51 -21 -57 -25 -29
-21 -256 -84 -412 -113 -107 -21 -425 -28 -549 -14 -682 82 -1272 500 -1569
1113 -72 148 -104 234 -140 373 -30 119 -36 151 -55 307 -8 69 -6 391 3 430 3
11 8 40 11 65 27 194 83 373 181 575 163 337 423 626 743 824 189 117 425 214
627 255 104 22 119 24 193 32 37 3 69 8 71 10 6 5 373 -3 396 -9z"/>
<path d="M2213 2596 c-190 -62 -268 -289 -156 -457 31 -47 113 -104 173 -119
103 -27 225 12 298 95 108 123 95 315 -28 422 -71 61 -199 88 -287 59z"/>
<path d="M1145 2571 c-197 -48 -268 -305 -124 -449 50 -51 105 -75 176 -78 72
-3 114 8 168 45 118 80 151 250 72 369 -62 94 -180 140 -292 113z"/>
<path d="M3305 2564 c-80 -27 -152 -104 -173 -185 -42 -157 68 -316 231 -335
230 -27 384 235 248 423 -70 97 -193 136 -306 97z"/>
</g>
</svg>
